<?xml version="1.0" standalone="no"?>
<!DOCTYPE svg PUBLIC "-//W3C//DTD SVG 1.0//EN" "http://www.w3.org/TR/2001/REC-SVG-20010904/DTD/svg10.dtd">
<svg xmlns="http://www.w3.org/2000/svg" xmlns:xlink="http://www.w3.org/1999/xlink" id="body_1" width="31" height="23">

<g transform="matrix(0.023 0 0 0.023 3.9999995 -0)">
	<g>
        <path d="M206 304C 242.1 304 272.9 291.2 298.4 265.7C 323.9 240.20001 336.69998 209.40001 336.69998 173.30002C 336.69998 137.20001 323.9 106.40002 298.4 80.90002C 272.9 55.400017 242.09999 42.600018 206 42.600018C 169.9 42.600018 139.1 55.400017 113.6 80.90002C 88.1 106.40002 75.3 137.20001 75.3 173.30002C 75.3 209.40002 88.100006 240.20001 113.600006 265.7C 139.1 291.2 169.9 304 206 304z" stroke="none" fill="#000000" fill-rule="nonzero" />
        <path d="M361.4 507.9C 399.69998 546.2 445.9 565.3 500 565.3C 554.1 565.3 600.3 546.2 638.6 507.9C 676.89996 469.6 696 423.4 696 369.3C 696 315.19998 676.9 269 638.6 230.69998C 600.3 192.39998 554.1 173.29999 499.99997 173.29999C 445.89996 173.29999 399.69995 192.4 361.39996 230.69998C 323.1 269 304 315.2 304 369.3C 304 423.4 323.1 469.6 361.4 507.9z" stroke="none" fill="#000000" fill-rule="nonzero" />
        <path d="M794 304C 830.1 304 860.9 291.2 886.4 265.7C 911.9 240.20001 924.7 209.40001 924.7 173.30002C 924.7 137.20001 911.9 106.40002 886.4 80.90002C 860.9 55.400017 830.10004 42.600018 794 42.600018C 757.9 42.600018 727.1 55.400017 701.6 80.90002C 676.1 106.40002 663.3 137.20001 663.3 173.30002C 663.3 209.40002 676.1 240.20001 701.6 265.7C 727.1 291.2 757.9 304 794 304z" stroke="none" fill="#000000" fill-rule="nonzero" />
        <path d="M926.7 304C 924.7 304 917.3 307.6 904.5 314.7C 891.7 321.80002 875.1 329.1 854.7 336.40002C 834.3 343.7 814 347.40002 794 347.40002C 771.2 347.40002 748.6 343.50003 726.1 335.7C 727.8 348.30002 728.6 359.5 728.6 369.40002C 728.6 416.7 714.8 460.30002 687.19995 500.10004C 742.2999 501.80005 787.39996 523.60004 822.49994 565.4L822.49994 565.4L891 565.4C 918.9 565.4 942.4 558.5 961.4 544.7C 980.5 530.9 990 510.80002 990 484.2C 990 364.1 968.9 304 926.7 304z" stroke="none" fill="#000000" fill-rule="nonzero" />
        <path d="M850.4 716.7C 846.80005 696.8 842.30005 678.3 836.9 661.3C 831.5 644.3 824.10004 627.7 815 611.5C 805.8 595.3 795.3 581.6 783.3 570.2C 771.39996 558.8 756.8 549.7 739.7 542.9C 722.5 536.10004 703.5 532.7 682.8 532.7C 679.39996 532.7 672.1 536.4 660.8 543.7C 649.6 551 637.2 559.2 623.5 568.2C 609.9 577.2 591.7 585.4 568.9 592.7C 546.10004 600 523.10004 603.7 500.00003 603.7C 476.90002 603.7 453.90002 600 431.10004 592.7C 408.30005 585.4 390.10004 577.2 376.50003 568.2C 362.90002 559.2 350.50003 551 339.20004 543.7C 328.00003 536.4 320.70004 532.7 317.20004 532.7C 296.40005 532.7 277.50003 536.10004 260.30005 542.9C 243.10005 549.7 228.60005 558.80005 216.70004 570.2C 204.80005 581.60004 194.20004 595.4 185.00005 611.5C 175.80005 627.7 168.50005 644.2 163.10005 661.3C 157.70006 678.3 153.20006 696.8 149.60005 716.7C 146.00005 736.60004 143.60005 755.10004 142.50005 772.3C 141.30005 789.5 140.70004 807.1 140.70004 825.1C 140.70004 865.89996 153.10004 898.19995 178.00005 921.8C 202.80005 945.39996 235.90005 957.3 277.00006 957.3L277.00006 957.3L723.1001 957.3C 764.3001 957.3 797.3001 945.5 822.1001 921.8C 846.9001 898.2 859.4001 865.89996 859.4001 825.1C 859.4001 807.1 858.8001 789.5 857.6001 772.3C 856.4 755.1 854 736.6 850.4 716.7z" stroke="none" fill="#000000" fill-rule="nonzero" />
        <path d="M312.7 500C 285.1 460.2 271.40002 416.6 271.40002 369.3C 271.40002 359.4 272.30002 348.19998 273.90002 335.59998C 251.40002 343.39996 228.80002 347.3 206.00003 347.3C 185.90002 347.3 165.70003 343.59998 145.30003 336.3C 124.90003 329 108.30003 321.8 95.50003 314.59998C 82.7 307.6 75.3 304 73.3 304C 31.1 304 10 364.1 10 484.2C 10 510.7 19.5 530.9 38.6 544.7C 57.699997 558.5 81.1 565.4 109 565.4L109 565.4L177.4 565.4C 212.5 523.5 257.5 501.7 312.7 500z" stroke="none" fill="#000000" fill-rule="nonzero" />
	</g>
</g>
</svg>