<svg xmlns="http://www.w3.org/2000/svg" xmlns:xlink="http://www.w3.org/1999/xlink" id="body_1" width="24" height="24">

<g transform="matrix(0.049748253 0 0 0.049748253 2.429114E-05 -0)">
	<g>
		<g>
            <path d="M381.163 57.799L306.069 57.799C 302.323 25.316 274.686 0 241.214 0C 207.74301 0 180.11 25.315 176.36401 57.799L176.36401 57.799L101.266014 57.799C 70.876015 57.799 46.155014 82.527 46.155014 112.916L46.155014 112.916L46.155014 115.744C 46.155014 138.96701 60.615013 158.844 80.985016 166.94301L80.985016 166.94301L80.985016 427.312C 80.985016 457.70203 105.709015 482.42902 136.09702 482.42902L136.09702 482.42902L346.333 482.42902C 376.72202 482.42902 401.444 457.7 401.444 427.312L401.444 427.312L401.444 166.944C 421.813 158.844 436.274 138.967 436.274 115.744995L436.274 115.744995L436.274 112.91699C 436.274 82.527 411.551 57.799 381.163 57.799zM241.214 26.139C 260.251 26.139 276.141 39.784 279.657 57.799L279.657 57.799L202.77802 57.799C 206.293 39.783 222.184 26.139 241.214 26.139zM375.305 427.312C 375.305 443.29 362.305 456.29102 346.332 456.29102L346.332 456.29102L136.096 456.29102C 120.12299 456.29102 107.12299 443.289 107.12299 427.312L107.12299 427.312L107.12299 170.861L375.305 170.861L375.305 427.312zM410.135 115.744C 410.135 131.722 397.135 144.723 381.16202 144.723L381.16202 144.723L101.266 144.723C 85.293 144.723 72.293 131.722 72.293 115.744L72.293 115.744L72.293 112.916C 72.293 96.938 85.293 83.937 101.266 83.937L101.266 83.937L381.163 83.937C 397.136 83.937 410.136 96.937996 410.136 112.916L410.136 112.916L410.136 115.744z" stroke="none" fill="#037cf4" fill-rule="nonzero"/>
            <path d="M171.144 422.863C 178.362 422.863 184.213 417.01 184.213 409.795L184.213 409.795L184.213 262.641C 184.213 255.42499 178.361 249.57098 171.144 249.57098C 163.927 249.57098 158.075 255.42499 158.075 262.641L158.075 262.641L158.075 409.79498C 158.074 417.012 163.926 422.863 171.144 422.863z" stroke="none" fill="#037cf4" fill-rule="nonzero"/>
            <path d="M241.214 422.863C 248.432 422.863 254.284 417.01 254.284 409.795L254.284 409.795L254.284 262.641C 254.284 255.42499 248.43 249.57098 241.21399 249.57098C 233.997 249.57098 228.14499 255.42499 228.14499 262.641L228.14499 262.641L228.14499 409.79498C 228.145 417.012 233.996 422.863 241.214 422.863z" stroke="none" fill="#037cf4" fill-rule="nonzero"/>
            <path d="M311.284 422.863C 318.501 422.863 324.352 417.01 324.352 409.795L324.352 409.795L324.352 262.641C 324.352 255.42499 318.5 249.57098 311.284 249.57098C 304.065 249.57098 298.214 255.42499 298.214 262.641L298.214 262.641L298.214 409.79498C 298.213 417.012 304.067 422.863 311.284 422.863z" stroke="none" fill="#037cf4" fill-rule="nonzero"/>
		</g>
	</g>
</g>
</svg>