<svg xmlns="http://www.w3.org/2000/svg" xmlns:xlink="http://www.w3.org/1999/xlink" id="body_1" width="31" height="23">

<g transform="matrix(0.023 0 0 0.023 3.9999995 -0)">
	<g>
		<g transform="matrix(0.1 0 -0 -0.1 0 511)">
            <path d="M4714.8 4997.1C 3688.6997 4869.9 2792.0999 4120.1 2465.4 3120.4001C 2226.4 2394.7002 2349.2 1596.7002 2800.7998 912.6001C 2855.5999 829.3001 2989.2998 669.2001 3096.7998 557.4001C 3204.1997 443.4001 3278.7998 351.30008 3263.4 351.30008C 3199.7998 351.30008 2612.2998 44.400085 2388.5999 -102.49991C 1982.9999 -372.19992 1526.9999 -788.69995 1222.1998 -1172.3999C 843 -1648.1 520.7 -2279.5 347.5 -2882.5C 283.9 -3106.1 277.3 -3467.9 334.3 -3682.7C 474.59998 -4204.5 869.3 -4599.1 1404.2 -4750.4C 1537.8999 -4787.6997 1724.2999 -4789.9 4997.5996 -4789.9C 8856.3 -4789.9 8553.699 -4800.9 8876 -4636.4C 9073.3 -4535.6 9130.3 -4493.9 9279.4 -4347C 9592.9 -4037.9 9753 -3562.1 9691.601 -3121.4C 9630.2 -2689.5 9327.7 -1976.9999 9001.001 -1492.3999C 8466.1 -698.8 7768.9 -109 6916 274.6L6916 274.6L6709.9 366.7L6841.4 496.1C 7203.1 851.30005 7453.1 1289.7 7578.1 1798.4C 7652.6 2094.4 7661.4 2557 7597.8003 2850.8C 7372 3905.3 6523.6 4751.5 5480 4964.2C 5262.9 5008 4916.5 5023.4 4714.8 4997.1zM5596.2 4310.9C 6148.7 4144.3 6560.9004 3802.2998 6806.4004 3304.5999C 7047.6006 2813.4998 7093.6006 2282.9 6938.0005 1745.7998C 6780.1006 1199.8998 6420.6006 778.8998 5894.4004 526.7998C 5284.9004 237.39981 4497.8003 272.49982 3916.9004 616.6998C 3734.9004 726.2998 3445.5005 993.7998 3331.5005 1162.5999C 2943.4004 1734.7998 2855.7004 2469.2998 3099.1006 3113.7998C 3307.4006 3668.4998 3730.5005 4080.6997 4296.2007 4280.1997C 4537.401 4365.6997 4686.401 4383.1997 5052.6006 4376.6997C 5355 4370.1 5429.6 4361.3 5596.2 4310.9zM4090 -117.8C 4164.5 -148.5 4217.2 -183.6 4215 -201.1C 4210.6 -238.40001 3660.3 -2656.6 3651.6 -2685.1C 3645 -2702.6 4771.9004 -3518.2002 4942.9004 -3621.3C 4973.6006 -3638.8 6282.5005 -2724.6 6275.9004 -2689.5C 6273.7 -2674.1 6148.7 -2119.5 5997.5005 -1453C 5846.2007 -786.5 5721.3003 -229.59998 5721.3003 -214.30005C 5721.3003 -196.80005 5793.6 -157.30005 5883.5005 -124.40005L5883.5005 -124.40005L6045.7007 -65.20004L6315.401 -152.90004C 7527.801 -551.9 8477.101 -1466.1 8928.801 -2674.2002C 9115.101 -3176.3003 9139.301 -3424.0002 9018.701 -3671.7002C 8928.801 -3858.0002 8727.102 -4057.6 8560.501 -4123.3003L8560.501 -4123.3003L8429.001 -4175.9004L5096.501 -4182.5005C 2814.201 -4186.9004 1715.801 -4180.3003 1612.801 -4165.0005C 1527.301 -4151.9004 1411.1011 -4114.6006 1351.901 -4081.7004C 1218.201 -4009.4004 1055.901 -3831.8005 972.601 -3665.1003C 915.601 -3553.3003 909.00104 -3520.4004 911.201 -3331.9004C 911.201 -3147.7004 922.201 -3092.9004 1005.501 -2849.6003C 1444.001 -1540.7003 2397.701 -578.20044 3671.501 -155.10034C 3816.201 -106.900345 3941.201 -67.400345 3947.701 -65.20034C 3954.1 -65.2 4017.6 -89.3 4090 -117.8zM5335.3 -1330.2C 5466.8 -1906.7999 5578.6997 -2393.5 5583.0996 -2411C 5589.6997 -2432.9 5488.8 -2516.2 5287.0996 -2656.6C 5118.3 -2775 4973.5996 -2871.5 4964.8 -2871.5C 4958.1997 -2871.5 4813.5 -2775 4644.6997 -2658.8C 4436.4 -2511.9001 4342.1997 -2435.2 4348.6997 -2411.1C 4355.3 -2393.6 4464.9 -1906.9001 4596.4995 -1332.4001L4596.4995 -1332.4001L4833.2993 -284.40015L4964.7993 -284.40015L5098.4995 -284.40015L5335.3 -1330.2z" stroke="none" fill="#076db8" fill-rule="nonzero"/>
		</g>
	</g>
</g>
</svg>